<svg xmlns="http://www.w3.org/2000/svg" width="1024" height="1024" viewBox="0 0 1024 1024">
  <path fill="#F4FFF9" fill-rule="evenodd" d="M320 170H704Q782 170 782 248V776Q782 854 704 854H320Q242 854 242 776V248Q242 170 320 170Z M362 375.0H362Q386 375.0 386 399.0V451.0Q386 475.0 362 475.0H362Q338 475.0 338 451.0V399.0Q338 375.0 362 375.0Z M437 336.0H437Q461 336.0 461 360.0V490.0Q461 514.0 437 514.0H437Q413 514.0 413 490.0V360.0Q413 336.0 437 336.0Z M512 297.0H512Q536 297.0 536 321.0V529.0Q536 553.0 512 553.0H512Q488 553.0 488 529.0V321.0Q488 297.0 512 297.0Z M587 336.0H587Q611 336.0 611 360.0V490.0Q611 514.0 587 514.0H587Q563 514.0 563 490.0V360.0Q563 336.0 587 336.0Z M662 375.0H662Q686 375.0 686 399.0V451.0Q686 475.0 662 475.0H662Q638 475.0 638 451.0V399.0Q638 375.0 662 375.0Z M358 627H666Q686 627 686 647V647Q686 667 666 667H358Q338 667 338 647V647Q338 627 358 627Z M358 715H556Q576 715 576 735V735Q576 755 556 755H358Q338 755 338 735V735Q338 715 358 715Z"/>
</svg>
